<mxfile host="app.diagrams.net" agent="Mozilla/5.0 (Windows NT 10.0; Win64; x64) AppleWebKit/537.36 (KHTML, like Gecko) Chrome/134.0.0.0 Safari/537.36" version="26.1.3">
  <diagram name="Page-1" id="cxbLiS9NmMJ1xF7XLfUb">
    <mxGraphModel dx="396" dy="233" grid="1" gridSize="10" guides="1" tooltips="1" connect="1" arrows="1" fold="1" page="1" pageScale="1" pageWidth="850" pageHeight="1100" math="0" shadow="0">
      <root>
        <mxCell id="0" />
        <mxCell id="1" parent="0" />
        <mxCell id="SzfD7wxugyMzjf5wT04s-2" value="Sinh viên" style="shape=hexagon;perimeter=hexagonPerimeter2;whiteSpace=wrap;html=1;fixedSize=1;fillColor=#f8cecc;strokeColor=#b85450;strokeWidth=2;" vertex="1" parent="1">
          <mxGeometry x="35" y="280" width="110" height="50" as="geometry" />
        </mxCell>
        <mxCell id="SzfD7wxugyMzjf5wT04s-8" style="edgeStyle=orthogonalEdgeStyle;rounded=0;orthogonalLoop=1;jettySize=auto;html=1;entryX=0;entryY=0.5;entryDx=0;entryDy=0;exitX=1;exitY=0.75;exitDx=0;exitDy=0;" edge="1" parent="1" source="SzfD7wxugyMzjf5wT04s-3" target="SzfD7wxugyMzjf5wT04s-7">
          <mxGeometry relative="1" as="geometry" />
        </mxCell>
        <mxCell id="SzfD7wxugyMzjf5wT04s-3" value="CVHT" style="shape=hexagon;perimeter=hexagonPerimeter2;whiteSpace=wrap;html=1;fixedSize=1;fillColor=#f8cecc;strokeColor=#b85450;strokeWidth=2;" vertex="1" parent="1">
          <mxGeometry x="370" y="220" width="110" height="50" as="geometry" />
        </mxCell>
        <mxCell id="SzfD7wxugyMzjf5wT04s-4" value="PCTSV, PĐT, VPK" style="shape=hexagon;perimeter=hexagonPerimeter2;whiteSpace=wrap;html=1;fixedSize=1;fillColor=#f8cecc;strokeColor=#b85450;strokeWidth=2;" vertex="1" parent="1">
          <mxGeometry x="30" y="160" width="120" height="50" as="geometry" />
        </mxCell>
        <mxCell id="SzfD7wxugyMzjf5wT04s-6" style="edgeStyle=orthogonalEdgeStyle;rounded=0;orthogonalLoop=1;jettySize=auto;html=1;entryX=1;entryY=0.5;entryDx=0;entryDy=0;" edge="1" parent="1" source="SzfD7wxugyMzjf5wT04s-5" target="SzfD7wxugyMzjf5wT04s-3">
          <mxGeometry relative="1" as="geometry" />
        </mxCell>
        <mxCell id="SzfD7wxugyMzjf5wT04s-5" value="Câu hỏi của sinh viên trên diễn đàn" style="rounded=0;whiteSpace=wrap;html=1;fillColor=#e1d5e7;strokeColor=#9673a6;strokeWidth=2;" vertex="1" parent="1">
          <mxGeometry x="560" y="215" width="120" height="60" as="geometry" />
        </mxCell>
        <mxCell id="SzfD7wxugyMzjf5wT04s-7" value="Câu trả lời trên diễn đàn" style="rounded=0;whiteSpace=wrap;html=1;fillColor=#e1d5e7;strokeColor=#9673a6;strokeWidth=2;" vertex="1" parent="1">
          <mxGeometry x="560" y="295" width="120" height="60" as="geometry" />
        </mxCell>
        <mxCell id="SzfD7wxugyMzjf5wT04s-9" value="Trả lời câu hỏi của sinh viên" style="ellipse;whiteSpace=wrap;html=1;fillColor=#d5e8d4;strokeColor=#82b366;strokeWidth=2;" vertex="1" parent="1">
          <mxGeometry x="365" y="350" width="120" height="60" as="geometry" />
        </mxCell>
        <mxCell id="SzfD7wxugyMzjf5wT04s-20" value="" style="group;rotation=90;" vertex="1" connectable="0" parent="1">
          <mxGeometry x="330" y="240" width="10" height="10" as="geometry" />
        </mxCell>
        <mxCell id="SzfD7wxugyMzjf5wT04s-21" value="" style="ellipse;whiteSpace=wrap;html=1;aspect=fixed;rotation=90;" vertex="1" parent="SzfD7wxugyMzjf5wT04s-20">
          <mxGeometry width="10" height="10" as="geometry" />
        </mxCell>
        <mxCell id="SzfD7wxugyMzjf5wT04s-25" style="edgeStyle=orthogonalEdgeStyle;rounded=0;orthogonalLoop=1;jettySize=auto;html=1;entryX=1;entryY=0.25;entryDx=0;entryDy=0;" edge="1" parent="1" source="SzfD7wxugyMzjf5wT04s-24" target="SzfD7wxugyMzjf5wT04s-3">
          <mxGeometry relative="1" as="geometry" />
        </mxCell>
        <mxCell id="SzfD7wxugyMzjf5wT04s-24" value="Thông tin từ Nhà trường" style="rounded=0;whiteSpace=wrap;html=1;fillColor=#e1d5e7;strokeColor=#9673a6;strokeWidth=2;" vertex="1" parent="1">
          <mxGeometry x="560" y="140" width="120" height="60" as="geometry" />
        </mxCell>
        <mxCell id="SzfD7wxugyMzjf5wT04s-10" value="" style="ellipse;whiteSpace=wrap;html=1;aspect=fixed;" vertex="1" parent="1">
          <mxGeometry x="420" y="310" width="10" height="10" as="geometry" />
        </mxCell>
        <mxCell id="SzfD7wxugyMzjf5wT04s-12" value="" style="endArrow=none;html=1;rounded=0;entryX=0.5;entryY=1;entryDx=0;entryDy=0;exitX=0.5;exitY=0;exitDx=0;exitDy=0;" edge="1" parent="1" source="SzfD7wxugyMzjf5wT04s-10" target="SzfD7wxugyMzjf5wT04s-3">
          <mxGeometry width="50" height="50" relative="1" as="geometry">
            <mxPoint x="420" y="300" as="sourcePoint" />
            <mxPoint x="470" y="250" as="targetPoint" />
          </mxGeometry>
        </mxCell>
        <mxCell id="SzfD7wxugyMzjf5wT04s-14" value="" style="endArrow=none;html=1;rounded=0;entryX=0.5;entryY=1;entryDx=0;entryDy=0;exitX=0.5;exitY=0;exitDx=0;exitDy=0;" edge="1" parent="1" source="SzfD7wxugyMzjf5wT04s-9" target="SzfD7wxugyMzjf5wT04s-10">
          <mxGeometry width="50" height="50" relative="1" as="geometry">
            <mxPoint x="435" y="310" as="sourcePoint" />
            <mxPoint x="435" y="280" as="targetPoint" />
          </mxGeometry>
        </mxCell>
        <mxCell id="SzfD7wxugyMzjf5wT04s-26" value="&lt;div style=&quot;line-height: 100%;&quot;&gt;Trả lời chính xác câu hỏi của sinh viên&lt;/div&gt;" style="shape=parallelogram;perimeter=parallelogramPerimeter;whiteSpace=wrap;html=1;fixedSize=1;fillColor=#fff2cc;strokeColor=#d6b656;strokeWidth=2;align=center;" vertex="1" parent="1">
          <mxGeometry x="180" y="220" width="130" height="50" as="geometry" />
        </mxCell>
        <mxCell id="SzfD7wxugyMzjf5wT04s-22" value="" style="endArrow=none;html=1;rounded=0;entryX=0;entryY=0.5;entryDx=0;entryDy=0;exitX=0.5;exitY=0;exitDx=0;exitDy=0;" edge="1" parent="1" source="SzfD7wxugyMzjf5wT04s-21" target="SzfD7wxugyMzjf5wT04s-3">
          <mxGeometry width="50" height="50" relative="1" as="geometry">
            <mxPoint x="340" y="240" as="sourcePoint" />
            <mxPoint x="390" y="290" as="targetPoint" />
          </mxGeometry>
        </mxCell>
        <mxCell id="SzfD7wxugyMzjf5wT04s-23" value="" style="endArrow=none;html=1;rounded=0;entryX=0.5;entryY=1;entryDx=0;entryDy=0;exitX=1;exitY=0.5;exitDx=0;exitDy=0;" edge="1" parent="1" target="SzfD7wxugyMzjf5wT04s-21" source="SzfD7wxugyMzjf5wT04s-26">
          <mxGeometry width="50" height="50" relative="1" as="geometry">
            <mxPoint x="330" y="255" as="sourcePoint" />
            <mxPoint x="360" y="255" as="targetPoint" />
          </mxGeometry>
        </mxCell>
        <mxCell id="SzfD7wxugyMzjf5wT04s-31" style="edgeStyle=orthogonalEdgeStyle;rounded=0;orthogonalLoop=1;jettySize=auto;html=1;entryX=0;entryY=0.5;entryDx=0;entryDy=0;exitX=1;exitY=0.25;exitDx=0;exitDy=0;" edge="1" parent="1" source="SzfD7wxugyMzjf5wT04s-27" target="SzfD7wxugyMzjf5wT04s-29">
          <mxGeometry relative="1" as="geometry" />
        </mxCell>
        <mxCell id="SzfD7wxugyMzjf5wT04s-27" value="PCTSV, PĐT" style="shape=hexagon;perimeter=hexagonPerimeter2;whiteSpace=wrap;html=1;fixedSize=1;fillColor=#f8cecc;strokeColor=#b85450;strokeWidth=2;" vertex="1" parent="1">
          <mxGeometry x="365" y="650" width="120" height="50" as="geometry" />
        </mxCell>
        <mxCell id="SzfD7wxugyMzjf5wT04s-30" style="edgeStyle=orthogonalEdgeStyle;rounded=0;orthogonalLoop=1;jettySize=auto;html=1;entryX=1;entryY=0.75;entryDx=0;entryDy=0;" edge="1" parent="1" source="SzfD7wxugyMzjf5wT04s-28" target="SzfD7wxugyMzjf5wT04s-27">
          <mxGeometry relative="1" as="geometry" />
        </mxCell>
        <mxCell id="SzfD7wxugyMzjf5wT04s-28" value="Thông tin từ Nhà trường" style="rounded=0;whiteSpace=wrap;html=1;fillColor=#e1d5e7;strokeColor=#9673a6;strokeWidth=2;" vertex="1" parent="1">
          <mxGeometry x="560" y="710" width="120" height="60" as="geometry" />
        </mxCell>
        <mxCell id="SzfD7wxugyMzjf5wT04s-29" value="Thông tin về Nhà trường trên hệ thống" style="rounded=0;whiteSpace=wrap;html=1;fillColor=#e1d5e7;strokeColor=#9673a6;strokeWidth=2;" vertex="1" parent="1">
          <mxGeometry x="560" y="580" width="120" height="60" as="geometry" />
        </mxCell>
        <mxCell id="SzfD7wxugyMzjf5wT04s-32" value="Đăng thông tin lên hệ thống" style="ellipse;whiteSpace=wrap;html=1;fillColor=#d5e8d4;strokeColor=#82b366;strokeWidth=2;" vertex="1" parent="1">
          <mxGeometry x="365" y="790" width="120" height="60" as="geometry" />
        </mxCell>
      </root>
    </mxGraphModel>
  </diagram>
</mxfile>
